<svg id="Layer_1" data-name="Layer 1" xmlns="http://www.w3.org/2000/svg" viewBox="0 0 545 789">
<polygon points="545 486.09 111.47 789 379.85 531.86 0 524.84 383.97 309.96 0 197.26 317.93 0 156.91 176.13 499.57 302.94 140.39 493.12 545 486.09"/>
<polygon style={{fill:#ffde59}}class="cls-1" points="463.17 480.92 128.87 766.79 335.81 524.13 42.92 517.5 339 314.74 42.92 208.37 288.08 22.23 163.91 188.42 428.13 308.08 151.18 487.58 463.17 480.92"/>
<polygon style={{fill:#1b1a0e}}class="cls-2" points="0 520.3 6.46 203.63 328.24 317.54 0 520.3"/>
<polygon style={{fill:#ffde59}}class="cls-1" points="42.92 203.63 42.92 520.3 143.96 517.5 122.78 203.63 42.92 203.63"/>
<polygon style={{fill:#6c2772}}class="cls-3" points="93.44 203.63 93.44 487.4 393.58 305.4 93.44 203.63"/></svg>