<svg id="Layer_1" data-name="Layer 1" xmlns="http://www.w3.org/2000/svg" viewBox="0 0 179.82 300.94">
<g><style>.cls-1{fill:#ffde59;}.cls-2{fill:#1b1a0e;}.cls-3{fill:#6c2772;}</style>
</g>
<polygon points="179.82 185.4 36.78 300.94 125.33 202
.87 0 200.18 126.69 118.23 0 75.24 104.89 0 51.77 67.17 
164.83 115.54 46.32 188.09 179.82 185.4"/><polygon
 class="cls-1" points="152.82 183.44 42.52 292.47 110.8 
 199.92 14.16 197.38 111.85 120.04 14.16 79.47 95.04 8.47 54.08
  71.86 141.26 117.51 49.87 185.97 152.82 183.44"/><polygon class="cls-2"
   points="0 198.46 2.13 77.67 108.3 121.12 0 198.46"/><polygon class="cls-1"
    points="14.16 77.67 14.16 198.46 47.5 197.38 40.5 77.67 14.16 77.67"/><polygon class="cls-3" points="30.83 77.67 30.83 185.91 129.86 116.48 30.83 77.67"/></svg>